Coordinates
version=1
nRows=13
nColumns=38
inDegrees=no

Units are S.I. units (second, meters, Newtons, ...)
If the header above contains a line with 'inDegrees', this indicates whether rotational values are in degrees (yes) or radians (no).

endheader
time	pelvis_tilt	pelvis_list	pelvis_rotation	pelvis_tx	pelvis_ty	pelvis_tz	hip_flexion_r	hip_adduction_r	hip_rotation_r	knee_angle_r	ankle_angle_r	subtalar_angle_r	mtp_angle_r	hip_flexion_l	hip_adduction_l	hip_rotation_l	knee_angle_l	ankle_angle_l	subtalar_angle_l	mtp_angle_l	lumbar_extension	lumbar_bending	lumbar_rotation	arm_flex_r	arm_add_r	arm_rot_r	elbow_flex_r	pro_sup_r	wrist_flex_r	wrist_dev_r	arm_flex_l	arm_add_l	arm_rot_l	elbow_flex_l	pro_sup_l	wrist_flex_l	wrist_dev_l
0.56	1.76593	1.45224	0.00843001	0.681787	-0.129089	0.926803	0.458624	-0.00232718	-0.392897	0.536627	0.0504084	0	0	0.0329104	-0.16324	-0.0528551	1.09129	-0.116914	0	0	-0.101952	0.0548674	-0.229209	-0.102271	-0.12647	0.0324006	0.269838	1.2052	0	0	-0.163202	-0.503484	0.607109	0.719346	0.695802	0	0
0.57	1.73578	1.44905	0.0327051	0.682548	-0.1166	0.927424	0.446578	0.00750679	-0.39363	0.5328	0.0606085	0	0	0.070456	-0.166922	-0.0452106	1.14269	-0.166936	0	0	-0.0988079	0.0599917	-0.223696	-0.0979476	-0.119489	-0.0322287	0.261891	1.28785	0	0	-0.16353	-0.502807	0.610956	0.715179	0.719227	0	0
0.58	1.70757	1.4469	0.0543572	0.683313	-0.104438	0.928347	0.435405	0.0179216	-0.387361	0.528809	0.0691875	0	0	0.107097	-0.167557	-0.0363459	1.19223	-0.189744	0	0	-0.0957907	0.0633967	-0.219102	-0.0989728	-0.119381	-0.0249708	0.268801	1.2816	0	0	-0.164954	-0.502517	0.613323	0.712688	0.732494	0	0
0.59	1.69403	1.44585	0.060825	0.684043	-0.0925185	0.929802	0.423296	0.0285169	-0.375231	0.525425	0.0754775	0	0	0.141537	-0.166329	-0.0283424	1.23974	-0.182483	0	0	-0.0952861	0.06545	-0.21438	-0.0976366	-0.118406	-0.0188245	0.272723	1.27835	0	0	-0.166474	-0.502213	0.614171	0.711333	0.739173	0	0
0.6	1.69802	1.44613	0.0499907	0.684634	-0.080741	0.931795	0.408894	0.0382499	-0.359627	0.522239	0.0809922	0	0	0.172959	-0.163537	-0.0215758	1.28195	-0.158122	0	0	-0.0975738	0.0662475	-0.209894	-0.0947479	-0.116677	-0.0124492	0.274741	1.27465	0	0	-0.167606	-0.501757	0.61483	0.710081	0.742981	0	0
0.61	1.71556	1.44773	0.0259621	0.685048	-0.0690568	0.9342	0.391039	0.0468433	-0.342439	0.516623	0.0866941	0	0	0.201591	-0.15883	-0.0156469	1.31728	-0.129219	0	0	-0.101837	0.0659037	-0.205325	-0.0915227	-0.114683	-0.00364736	0.275976	1.26782	0	0	-0.167823	-0.500972	0.616729	0.707811	0.74504	0	0
0.62	1.74209	1.45083	-0.00697045	0.685344	-0.0574626	0.936839	0.370421	0.0532029	-0.325947	0.508389	0.0920775	0	0	0.228419	-0.151684	-0.0104569	1.34563	-0.104277	0	0	-0.107506	0.0640492	-0.199298	-0.0841765	-0.107791	-0.0388737	0.266872	1.31551	0	0	-0.166299	-0.500548	0.620779	0.706179	0.743045	0	0
0.63	1.77338	1.45468	-0.0443999	0.685515	-0.04601	0.939532	0.347615	0.0574263	-0.312804	0.496983	0.0970249	0	0	0.254648	-0.142883	-0.00537952	1.36752	-0.0868691	0	0	-0.113377	0.0615666	-0.194618	-0.0868552	-0.111772	0.0266398	0.280129	1.23442	0	0	-0.165474	-0.499474	0.622369	0.703923	0.744881	0	0
0.64	1.80147	1.45869	-0.0782746	0.685663	-0.0346799	0.9422	0.323363	0.0605572	-0.303096	0.481417	0.101214	0	0	0.281259	-0.133592	-7.90231e-05	1.38352	-0.0752924	0	0	-0.119636	0.0591563	-0.186422	-0.0752997	-0.0991057	-0.0698767	0.259471	1.35522	0	0	-0.160168	-0.500167	0.63249	0.702298	0.737142	0	0
0.65	1.82158	1.46242	-0.104609	0.685783	-0.0234375	0.944677	0.299264	0.0633133	-0.295611	0.463864	0.105887	0	0	0.308492	-0.124461	0.00493548	1.39439	-0.0676996	0	0	-0.124353	0.0572693	-0.178826	-0.0747829	-0.0975647	-0.0678897	0.261711	1.35181	0	0	-0.15667	-0.499227	0.635557	0.699979	0.736735	0	0
0.66	1.82752	1.46653	-0.117611	0.685921	-0.0122644	0.94683	0.277643	0.0649397	-0.28993	0.44786	0.110492	0	0	0.336816	-0.115281	0.00902253	1.40049	-0.0602446	0	0	-0.126861	0.0551559	-0.17092	-0.0814059	-0.102723	-0.00749993	0.277305	1.27531	0	0	-0.154227	-0.497627	0.635215	0.69789	0.737722	0	0
0.67	1.83057	1.47044	-0.12824	0.686116	-0.00113568	0.948825	0.255919	0.0668257	-0.28431	0.430398	0.113833	0	0	0.364301	-0.106971	0.0123005	1.40142	-0.0530518	0	0	-0.129386	0.0532784	-0.160858	-0.08242	-0.101247	-0.0173991	0.279019	1.28646	0	0	-0.149927	-0.496365	0.637278	0.695725	0.736139	0	0
0.68	1.83107	1.47475	-0.137426	0.686372	0.0099081	0.950631	0.235618	0.0678774	-0.277426	0.414292	0.116937	0	0	0.390827	-0.0991944	0.0136559	1.39755	-0.046268	0	0	-0.131783	0.050948	-0.149807	-0.0841569	-0.100248	-0.0272892	0.282206	1.29705	0	0	-0.146269	-0.495128	0.637331	0.694401	0.73584	0	0
